<svg xmlns="http://www.w3.org/2000/svg" fill="none" viewBox="0 542.798 948.6906474820145 1307.844" style="max-height: 500px" width="948.6906474820145" height="1307.844">
<path fill="black" d="M46.8409 534.767C-6.33829 414.408 57.5775 345.411 96.1828 325.958L660.541 0.125519L1781.68 1941.99L1617.32 2117.82C1581.17 2141.53 1489.46 2162.38 1411.81 2056.15C1314.76 1923.35 1263.45 1958.08 1207.6 1961.4C1151.76 1964.73 762.339 2055.45 652.969 1954.22C546.197 1855.4 560.356 1697.88 426.505 1654.37C319.424 1619.57 271.532 1553.69 256.64 1527.89C241.748 1502.1 208.637 1427.68 232.038 1317.55C261.289 1179.88 181.315 1067.84 76.9318 966.498C-27.4515 865.154 -4.01615 805.693 26.7854 758.99C57.5869 712.287 113.315 685.216 46.8409 534.767Z"/>
<path fill="url(#paint0_linear_189_97)" d="M46.8409 534.767C-6.33829 414.408 57.5775 345.411 96.1828 325.958L660.541 0.125519L1781.68 1941.99L1617.32 2117.82C1581.17 2141.53 1489.46 2162.38 1411.81 2056.15C1314.76 1923.35 1263.45 1958.08 1207.6 1961.4C1151.76 1964.73 762.339 2055.45 652.969 1954.22C546.197 1855.4 560.356 1697.88 426.505 1654.37C319.424 1619.57 271.532 1553.69 256.64 1527.89C241.748 1502.1 208.637 1427.68 232.038 1317.55C261.289 1179.88 181.315 1067.84 76.9318 966.498C-27.4515 865.154 -4.01615 805.693 26.7854 758.99C57.5869 712.287 113.315 685.216 46.8409 534.767Z"/>
<defs>
<linearGradient gradientUnits="userSpaceOnUse" y2="2746.88" x2="897.105" y1="28.5763" x1="610.973" id="paint0_linear_189_97">
<stop stop-color="#9181F4" offset="0.015"/>
<stop stop-color="#9181F4" offset="0.215"/>
<stop stop-opacity="0.0666667" stop-color="#9181F4" offset="0.895"/>
</linearGradient>
</defs>
</svg>